<?xml version="1.0" encoding="UTF-8"?>
<svg id="Layer_2" data-name="Layer 2" xmlns="http://www.w3.org/2000/svg" viewBox="0 0 679.82 146.63">
  <defs>
    <style>
      .cls-1 {
        fill: #ed1c24;
      }

      .cls-1, .cls-2 {
        stroke-width: 0px;
      }
    </style>
  </defs>
  <g id="Layer_1-2" data-name="Layer 1">
    <g>
      <g>
        <path class="cls-2" d="M189.6,57.95c-2.38-.06-6.75-.23-11.58-.23s-6.81.12-11.29.23l.12-1.45c3.61-.41,3.96-.64,3.61-2.1-.41-1.86-2.04-7.1-3.2-10.94-1.86-.06-3.96-.06-5.93-.06s-4.07,0-5.7.06c-1.92,5.59-2.73,8.09-2.91,9.19-.41,2.68.47,3.49,5.82,3.84l-.35,1.45c-1.8,0-4.01-.23-6.98-.23-2.04,0-5.53.23-8.2.23l.06-1.45c3.43-.35,4.89-.87,6.46-4.07,2.44-5.06,9.43-23.62,11.17-28.68.47-1.51.58-2.21.7-3.61,1.86.18,9.31-.17,10.71-1.11,2.79,8.44,10.18,30.9,12.68,35.61.47.99,1.34,1.51,2.44,1.63l2.33.23.06,1.45ZM156.38,41.37c1.57,0,3.49.06,5.24.06s3.55-.06,5-.06c-1.51-5.06-3.32-11-4.77-15.83-1.05,3.08-2.5,7.1-5.47,15.83Z"/>
        <path class="cls-2" d="M189.36,33.05h3.61v-2.04c0-3.84,1.05-7.16,3.78-9.66,2.44-2.27,5.64-3.61,9.72-3.61,6.23,0,8.32,2.73,8.32,5.24,0,1.98-1.75,3.96-5.24,3.96-1.63,0-2.15-.93-2.21-2.15-.06-3.72-.29-5.35-1.75-5.35-.7,0-1.51.7-1.51,2.85,0,1.98.41,7.27.47,10.76h5.59l-.29,1.57-5.35.52c-.12,2.04-.17,4.6-.17,8.44,0,5.99,0,8.32.17,10.65.12,1.4.47,1.98,1.86,2.04,1.11.18,2.04.23,2.91.23l-.23,1.45c-2.09,0-6.92-.23-10.01-.23-3.32,0-7.97.17-10.18.23l.23-1.45c3.2-.06,3.55-.41,3.61-1.51.12-1.8.23-4.07.23-7.33v-12.57l-3.9-.47.35-1.57Z"/>
        <path class="cls-2" d="M214.73,44.57c0-3.67-.06-6.63-.47-8.61-.12-.58-.35-.87-1.22-.87h-1.8l-.12-1.57c3.43,0,10.71-.35,13.91-1.34l.23.18c.35,1.05.64,3.32.64,6.52h.17c2.04-4.54,4.31-6.75,8.09-6.75,3.32,0,4.89,2.62,4.89,5.06,0,4.48-3.55,5.47-5,5.47-1.69,0-2.68-.76-3.03-1.75-.47-1.4-.81-2.44-2.04-2.44s-1.86.99-2.38,2.21c-.29.76-.47,1.11-.47,2.44,0,6.52.06,9.95.12,11.29.06,1.51.81,1.86,5.35,2.1l-.23,1.45c-3.49-.06-6.98-.23-10.76-.23s-7.16.17-9.77.23l.29-1.45c2.79-.12,3.26-.47,3.38-1.57.12-1.28.23-3.72.23-7.39v-2.97Z"/>
        <path class="cls-2" d="M259.46,57.95c-2.33,0-5.18-.23-10.12-.23-5.35,0-6.87.23-8.79.23v-1.45c3.26-.18,3.67-.64,3.72-1.86.06-1.11.12-2.74.12-6.23v-6.28c0-2.38-.06-5-.12-6.05-.12-1.11-.47-1.28-3.2-1.22l.06-1.51c4.89-.06,9.89-.47,14.78-1.22-.06,1.45-.12,3.49-.12,9.48v6.87c0,3.67.12,4.66.23,6.17.12,1.4.47,1.63,3.43,1.86v1.45ZM249.92,19.43c3.08,0,5.12,1.8,5.12,5.06,0,2.79-2.21,4.71-5.29,4.71-2.91,0-5-1.86-5-4.65,0-3.03,2.04-5.12,5.12-5.12h.06Z"/>
        <path class="cls-2" d="M291.98,49.51c-2.09,6.46-6.87,9.13-13.56,9.13s-10.59-1.57-13.09-4.25c-2.15-2.38-2.79-5.47-2.79-8.32,0-8.44,5.53-13.96,16.81-13.96,6.63,0,12.33,2.1,12.33,7.1,0,3.61-3.78,4.42-5.99,4.42-.87,0-1.86-.23-2.44-.7-.41-.23-.76-.81-.7-1.34.17-1.11.29-1.8.29-2.79,0-3.03-.87-5.12-3.55-5.12-2.85,0-4.65,4.01-4.65,10.71,0,2.44.35,5,.99,6.75,1.34,3.49,3.61,4.42,6.52,4.42,3.9,0,6.57-1.92,8.44-6.81l1.4.76Z"/>
        <path class="cls-2" d="M314.32,38.57c-.06-2.85-.93-4.95-3.49-4.95-2.91,0-4.01,1.92-3.96,4.42,0,.58,0,1.57.12,2.1.12.7-.06,1.34-.64,1.8-.93.76-2.68,1.11-3.96,1.11-2.33,0-4.77-.82-4.77-3.49,0-3.26,4.48-7.45,14.95-7.45,7.45,0,10.24,2.5,11.52,4.07.52.7,1.05,2.1,1.05,3.2v13.67c0,1.74.29,2.04,1.05,2.04.93,0,2.5-2.15,3.08-4.89l1.63.7c-1.34,5.41-4.31,7.74-9.83,7.74-4.95,0-6.17-2.38-6.87-4.42-2.91,2.97-6.23,4.42-9.83,4.42-5.88,0-8.49-3.32-8.49-7.56,0-2.62,1.22-4.6,3.14-5.24,5.06-1.75,11.99-3.37,15.36-5.18l-.06-2.09ZM307.63,49.8c0,2.15.81,4.77,3.14,4.77s2.79-2.39,3.03-3.2c.23-.76.41-2.04.47-3.43l.12-5.59c-1.28.52-3.14,1.4-4.42,2.15-1.4.81-2.33,2.04-2.33,5.24v.06Z"/>
        <path class="cls-2" d="M331.71,56.49c2.91-.12,3.26-.29,3.32-1.8.12-1.92.23-3.03.23-6.58v-5.7c0-3.08,0-5.18-.12-6.63-.06-.64-.52-.99-3.14-1.16l.06-1.4c4.71,0,9.48-.23,14.2-.87.35,1.22.47,3.03.52,3.96,2.38-1.92,5.24-4.19,10.36-4.19,4.19,0,6.81,1.69,7.91,3.43.64.99,1.05,2.04,1.05,3.61v15.59c0,1.22.29,1.4,3.43,1.75v1.45c-3.08-.12-5.88-.23-8.9-.23-4.77,0-7.91.23-8.84.23v-1.45c2.21-.18,2.62-.52,2.73-1.8.06-1.16.17-2.79.17-7.85.06-8.15.06-9.02-.41-9.83-.58-.93-1.34-1.4-2.5-1.4-1.69,0-3.32.93-4.36,2.62-.52.81-.76,1.45-.76,2.79v7.56c0,2.5,0,4.31.12,6.34.06,1.22.58,1.4,2.97,1.57v1.45c-1.92,0-5.64-.23-9.19-.23-4.36,0-7.16.23-8.84.23v-1.45Z"/>
        <path class="cls-2" d="M423.34,34.62c-.81-7.45-4.54-14.14-12.45-14.14-3.55,0-5.76,1.11-7.68,3.43-2.56,2.97-4.07,7.8-4.07,14.08,0,5.76,1.05,10.24,3.43,13.32,2.27,2.91,5.41,4.19,9.66,4.19,5.59,0,10.76-3.08,13.21-10.3l1.45.93c-2.79,8.55-9.66,12.74-19.32,12.74-6.69,0-13.21-1.51-17.16-5.24-4.07-3.78-5.53-8.96-5.53-14.37,0-6.81,2.73-12.62,8.03-16.35,3.78-2.56,8.79-4.19,16-4.19,6.63,0,11.17,1.45,13.91,3.84l1.4-3.55,1.11.47c-.7,4.31-.87,11.06-.64,14.89l-1.34.23Z"/>
        <path class="cls-2" d="M449.05,38.57c-.06-2.85-.93-4.95-3.49-4.95-2.91,0-4.01,1.92-3.96,4.42,0,.58,0,1.57.12,2.1.12.7-.06,1.34-.64,1.8-.93.76-2.68,1.11-3.96,1.11-2.33,0-4.77-.82-4.77-3.49,0-3.26,4.48-7.45,14.95-7.45,7.45,0,10.24,2.5,11.52,4.07.52.7,1.05,2.1,1.05,3.2v13.67c0,1.74.29,2.04,1.05,2.04.93,0,2.5-2.15,3.08-4.89l1.63.7c-1.34,5.41-4.31,7.74-9.83,7.74-4.95,0-6.17-2.38-6.87-4.42-2.91,2.97-6.23,4.42-9.83,4.42-5.88,0-8.49-3.32-8.49-7.56,0-2.62,1.22-4.6,3.14-5.24,5.06-1.75,11.99-3.37,15.36-5.18l-.06-2.09ZM442.36,49.8c0,2.15.81,4.77,3.14,4.77s2.79-2.39,3.03-3.2c.23-.76.41-2.04.47-3.43l.12-5.59c-1.28.52-3.14,1.4-4.42,2.15-1.4.81-2.33,2.04-2.33,5.24v.06Z"/>
        <path class="cls-2" d="M466.44,56.49c2.91-.12,3.26-.29,3.32-1.8.12-1.92.23-3.03.23-6.58v-5.7c0-3.08,0-5.18-.12-6.63-.06-.64-.52-.99-3.14-1.16l.06-1.4c4.71,0,9.48-.23,14.2-.87.35,1.22.47,3.03.52,3.96,2.39-1.92,5.24-4.19,10.36-4.19,4.19,0,6.81,1.69,7.91,3.43.64.99,1.05,2.04,1.05,3.61v15.59c0,1.22.29,1.4,3.43,1.75v1.45c-3.08-.12-5.88-.23-8.9-.23-4.77,0-7.91.23-8.84.23v-1.45c2.21-.18,2.62-.52,2.73-1.8.06-1.16.18-2.79.18-7.85.06-8.15.06-9.02-.41-9.83-.58-.93-1.34-1.4-2.5-1.4-1.69,0-3.32.93-4.36,2.62-.52.81-.76,1.45-.76,2.79v7.56c0,2.5,0,4.31.12,6.34.06,1.22.58,1.4,2.97,1.57v1.45c-1.92,0-5.64-.23-9.19-.23-4.36,0-7.16.23-8.84.23v-1.45Z"/>
        <path class="cls-2" d="M526.59,38.57c-.06-2.85-.93-4.95-3.49-4.95-2.91,0-4.01,1.92-3.96,4.42,0,.58,0,1.57.12,2.1.12.7-.06,1.34-.64,1.8-.93.76-2.68,1.11-3.96,1.11-2.33,0-4.77-.82-4.77-3.49,0-3.26,4.48-7.45,14.95-7.45,7.45,0,10.24,2.5,11.52,4.07.52.7,1.05,2.1,1.05,3.2v13.67c0,1.74.29,2.04,1.05,2.04.93,0,2.5-2.15,3.08-4.89l1.63.7c-1.34,5.41-4.31,7.74-9.83,7.74-4.95,0-6.17-2.38-6.87-4.42-2.91,2.97-6.23,4.42-9.83,4.42-5.88,0-8.49-3.32-8.49-7.56,0-2.62,1.22-4.6,3.14-5.24,5.06-1.75,11.99-3.37,15.36-5.18l-.06-2.09ZM519.9,49.8c0,2.15.81,4.77,3.14,4.77s2.79-2.39,3.03-3.2c.23-.76.41-2.04.47-3.43l.12-5.59c-1.28.52-3.14,1.4-4.42,2.15-1.4.81-2.33,2.04-2.33,5.24v.06Z"/>
        <path class="cls-2" d="M562.83,18.56c3.2,0,11.23-.35,16.06-.76-.17,2.97-.35,6.52-.41,13.56l-.12,13.03c-.06,3.67,0,6.63.23,9.83.17,1.28.47,1.63,1.34,1.63l2.5.12-.29,1.45c-4.89.18-10.53.23-15.3,1.28v-3.96h-.17c-2.79,2.21-5.53,3.9-9.66,3.9-4.36,0-7.45-1.34-9.25-3.43-1.86-1.98-2.97-5.06-2.97-8.67,0-8.38,4.83-14.43,16-14.43,2.68,0,5.12.52,6.17,1.22,0-2.91,0-8.03-.06-11.11-.06-2.1-.29-2.21-4.13-2.27l.06-1.4ZM556.84,44.86c0,3.2.58,5.99,1.57,7.68.99,1.8,2.56,2.5,4.13,2.5,1.75,0,3.03-.81,3.84-2.5.35-.64.58-1.8.58-7.85,0-6.58-.06-7.91-.47-8.61-.58-1.05-1.4-2.15-3.72-2.15-4.01,0-5.93,5.12-5.93,10.88v.06Z"/>
        <path class="cls-2" d="M602.68,57.95c-2.33,0-5.18-.23-10.12-.23-5.35,0-6.87.23-8.78.23v-1.45c3.26-.18,3.66-.64,3.72-1.86.06-1.11.12-2.74.12-6.23v-6.28c0-2.38-.06-5-.12-6.05-.12-1.11-.47-1.28-3.2-1.22l.06-1.51c4.89-.06,9.89-.47,14.78-1.22-.06,1.45-.12,3.49-.12,9.48v6.87c0,3.67.12,4.66.23,6.17.12,1.4.47,1.63,3.43,1.86v1.45ZM593.14,19.43c3.08,0,5.12,1.8,5.12,5.06,0,2.79-2.21,4.71-5.3,4.71-2.91,0-5-1.86-5-4.65,0-3.03,2.04-5.12,5.12-5.12h.06Z"/>
        <path class="cls-2" d="M624.61,38.57c-.06-2.85-.93-4.95-3.49-4.95-2.91,0-4.01,1.92-3.96,4.42,0,.58,0,1.57.12,2.1.12.7-.06,1.34-.64,1.8-.93.76-2.68,1.11-3.96,1.11-2.33,0-4.77-.82-4.77-3.49,0-3.26,4.48-7.45,14.95-7.45,7.45,0,10.24,2.5,11.52,4.07.52.7,1.05,2.1,1.05,3.2v13.67c0,1.74.29,2.04,1.05,2.04.93,0,2.5-2.15,3.08-4.89l1.63.7c-1.34,5.41-4.31,7.74-9.83,7.74-4.95,0-6.17-2.38-6.87-4.42-2.91,2.97-6.23,4.42-9.83,4.42-5.88,0-8.49-3.32-8.49-7.56,0-2.62,1.22-4.6,3.14-5.24,5.06-1.75,11.99-3.37,15.36-5.18l-.06-2.09ZM617.92,49.8c0,2.15.81,4.77,3.14,4.77s2.79-2.39,3.03-3.2c.23-.76.41-2.04.47-3.43l.12-5.59c-1.28.52-3.14,1.4-4.42,2.15-1.4.81-2.33,2.04-2.33,5.24v.06Z"/>
        <path class="cls-2" d="M642,56.49c2.91-.12,3.26-.29,3.32-1.8.12-1.92.23-3.03.23-6.58v-5.7c0-3.08,0-5.18-.12-6.63-.06-.64-.52-.99-3.14-1.16l.06-1.4c4.71,0,9.48-.23,14.2-.87.35,1.22.47,3.03.52,3.96,2.38-1.92,5.24-4.19,10.36-4.19,4.19,0,6.81,1.69,7.91,3.43.64.99,1.05,2.04,1.05,3.61v15.59c0,1.22.29,1.4,3.43,1.75v1.45c-3.08-.12-5.88-.23-8.9-.23-4.77,0-7.91.23-8.84.23v-1.45c2.21-.18,2.62-.52,2.74-1.8.06-1.16.17-2.79.17-7.85.06-8.15.06-9.02-.41-9.83-.58-.93-1.34-1.4-2.5-1.4-1.69,0-3.32.93-4.36,2.62-.52.81-.76,1.45-.76,2.79v7.56c0,2.5,0,4.31.12,6.34.06,1.22.58,1.4,2.97,1.57v1.45c-1.92,0-5.64-.23-9.19-.23-4.36,0-7.16.23-8.84.23v-1.45Z"/>
      </g>
      <g>
        <path class="cls-2" d="M176.38,104.67c-.65-5.89-3.59-11.19-9.85-11.19-2.81,0-4.56.88-6.08,2.72-2.03,2.35-3.22,6.17-3.22,11.14,0,4.56.83,8.11,2.72,10.55,1.8,2.3,4.28,3.32,7.64,3.32,4.42,0,8.52-2.44,10.45-8.15l1.15.74c-2.21,6.77-7.64,10.08-15.29,10.08-5.3,0-10.45-1.2-13.58-4.14-3.22-2.99-4.38-7.09-4.38-11.38,0-5.39,2.16-9.99,6.35-12.94,2.99-2.03,6.95-3.32,12.66-3.32,5.25,0,8.84,1.15,11.01,3.04l1.1-2.81.88.37c-.55,3.41-.69,8.75-.51,11.79l-1.06.18Z"/>
        <path class="cls-2" d="M196.41,102.69c6.95,0,13.54,2.44,13.54,10.36,0,7.46-6.12,10.64-13.91,10.64-8.8,0-13.63-3.55-13.63-10.27,0-7.23,5.53-10.73,13.95-10.73h.05ZM195.99,103.93c-1.29,0-2.07.78-2.62,1.8-.64,1.15-1.1,3.91-1.1,6.91,0,3.78.55,6.03,1.29,7.64.65,1.52,1.75,2.16,3.09,2.16s2.21-.69,2.67-1.93c.6-1.47,1.01-3.59,1.01-6.86s-.69-6.54-1.43-7.83c-.69-1.34-1.52-1.89-2.86-1.89h-.05Z"/>
        <path class="cls-2" d="M215.42,110.84c0-2.44-.05-3.96-.18-5.3-.05-.55-.23-.83-2.58-.88l.09-1.11c3.73,0,7.55-.18,11.24-.69.28.78.51,2.39.6,3.27,1.84-1.38,4.56-3.45,8.93-3.45,2.53,0,4.01.78,4.83,1.75.55.64.88,1.34,1.11,1.8,2.35-1.61,4.51-3.55,8.89-3.55,2.99,0,4.74,1.24,5.57,2.44.74,1.1,1.01,2.12,1.01,3.22v12.2c0,1.06.18,1.15,2.72,1.43l-.05,1.15c-2.12,0-4.1-.14-7.46-.18-3.96-.05-5.62.18-6.63.18v-1.15c1.84-.14,2.21-.42,2.26-1.47.09-.88.14-2.17.14-6.68.05-6.08-.09-6.63-.37-7.14-.41-.69-1.01-1.11-2.12-1.11s-2.39.64-3.22,2.21c-.37.69-.51,1.43-.51,2.26v5.8c0,2.12,0,3.32.09,4.83.05,1.01.55,1.15,2.39,1.29v1.15c-1.2,0-4.42-.18-7.32-.18-3.5,0-5.43.18-6.68.18v-1.15c1.8-.09,2.26-.28,2.35-1.75.05-1.2.14-2.62.14-5.57v-5.89c0-.97-.05-1.7-.37-2.21-.32-.55-.83-.97-1.8-.97s-2.35.69-3.36,2.03c-.46.69-.69,1.57-.69,2.62v5.62c0,2.12.05,3.32.14,4.88.05.97.51,1.11,2.3,1.24l-.32,1.15c-.87,0-4.05-.18-6.91-.18-3.78,0-5.8.18-7.09.18l.05-1.15c2.21-.09,2.62-.28,2.67-1.57.09-1.24.14-2.81.14-5.43v-4.14Z"/>
        <path class="cls-2" d="M262.71,110.84c0-2.44-.05-3.96-.18-5.3-.05-.55-.23-.83-2.58-.88l.09-1.11c3.73,0,7.55-.18,11.24-.69.28.78.51,2.39.6,3.27,1.84-1.38,4.56-3.45,8.93-3.45,2.53,0,4.01.78,4.83,1.75.55.64.88,1.34,1.11,1.8,2.35-1.61,4.51-3.55,8.89-3.55,2.99,0,4.74,1.24,5.57,2.44.74,1.1,1.01,2.12,1.01,3.22v12.2c0,1.06.18,1.15,2.72,1.43l-.05,1.15c-2.12,0-4.1-.14-7.46-.18-3.96-.05-5.62.18-6.63.18v-1.15c1.84-.14,2.21-.42,2.26-1.47.09-.88.14-2.17.14-6.68.05-6.08-.09-6.63-.37-7.14-.41-.69-1.01-1.11-2.12-1.11s-2.39.64-3.22,2.21c-.37.69-.51,1.43-.51,2.26v5.8c0,2.12,0,3.32.09,4.83.05,1.01.55,1.15,2.39,1.29v1.15c-1.2,0-4.42-.18-7.32-.18-3.5,0-5.43.18-6.68.18v-1.15c1.8-.09,2.26-.28,2.35-1.75.05-1.2.14-2.62.14-5.57v-5.89c0-.97-.05-1.7-.37-2.21-.32-.55-.83-.97-1.8-.97s-2.35.69-3.36,2.03c-.46.69-.69,1.57-.69,2.62v5.62c0,2.12.05,3.32.14,4.88.05.97.51,1.11,2.3,1.24l-.32,1.15c-.87,0-4.05-.18-6.91-.18-3.78,0-5.8.18-7.09.18l.05-1.15c2.21-.09,2.62-.28,2.67-1.57.09-1.24.14-2.81.14-5.43v-4.14Z"/>
        <path class="cls-2" d="M322.06,103.47c2.3-.05,5.25-.14,7.6-.23,2.4-.09,3.96-.23,4.56-.23-.05.92-.18,3.04-.18,6.03v5.57c0,1.98,0,3.73.18,5.53.14,1.29.37,1.43,2.95,1.38v1.2c-1.89.05-3.78.18-6.82.46-2.49.18-4.65.41-5.3.51-.05-1.57-.14-3.04-.18-3.82-1.84,1.8-4.47,3.82-8.7,3.82s-5.76-1.98-6.17-2.76c-.37-.64-.55-1.66-.55-2.95.05-3.22.09-6.45.14-9.3.05-1.61-.05-2.3-.09-3.09-.14-.88-.46-.97-2.58-.97l.05-1.2c2.67-.05,5.11-.14,7.05-.23,2.03-.14,3.59-.28,5.02-.41-.28,1.1-.55,2.9-.55,9.76,0,2.44,0,5.02.23,6.72.14,1.1.6,1.61,1.66,1.61,2.53,0,3.73-2.03,4.24-3.59.32-.88.41-1.66.41-2.62v-5.07c0-1.7,0-2.86-.18-3.82-.09-.92-.97-1.06-2.76-1.11v-1.2Z"/>
        <path class="cls-2" d="M339.01,121.98c2.3-.09,2.58-.23,2.62-1.43.09-1.52.18-2.39.18-5.2v-4.51c0-2.44,0-4.1-.09-5.25-.05-.51-.41-.78-2.49-.92l.05-1.11c3.73,0,7.51-.18,11.24-.69.28.97.37,2.39.41,3.13,1.89-1.52,4.14-3.32,8.2-3.32,3.32,0,5.39,1.34,6.26,2.72.51.78.83,1.61.83,2.86v12.34c0,.97.23,1.11,2.72,1.38v1.15c-2.44-.09-4.65-.18-7.05-.18-3.78,0-6.26.18-7,.18v-1.15c1.75-.14,2.07-.42,2.16-1.43.05-.92.14-2.21.14-6.22.05-6.45.05-7.14-.32-7.78-.46-.74-1.06-1.1-1.98-1.1-1.34,0-2.62.74-3.45,2.07-.41.64-.6,1.15-.6,2.21v5.99c0,1.98,0,3.41.09,5.02.05.97.46,1.11,2.35,1.24v1.15c-1.52,0-4.47-.18-7.28-.18-3.45,0-5.66.18-7,.18v-1.15Z"/>
        <path class="cls-2" d="M385.74,123.14c-1.84,0-4.1-.18-8.01-.18-4.24,0-5.43.18-6.95.18v-1.15c2.58-.14,2.9-.51,2.95-1.47.05-.88.09-2.17.09-4.93v-4.97c0-1.89-.05-3.96-.09-4.79-.09-.88-.37-1.01-2.53-.97l.05-1.2c3.87-.05,7.83-.37,11.7-.97-.05,1.15-.09,2.76-.09,7.51v5.43c0,2.9.09,3.68.18,4.88.09,1.1.37,1.29,2.72,1.47v1.15ZM378.19,92.65c2.44,0,4.05,1.43,4.05,4.01,0,2.21-1.75,3.73-4.19,3.73-2.3,0-3.96-1.47-3.96-3.68,0-2.39,1.61-4.05,4.05-4.05h.05Z"/>
        <path class="cls-2" d="M404.9,103.43l-.05,1.29-5.8.42c0,1.57-.05,4.42-.05,7.69s0,6.03.23,7.64c.14.74.51,1.1,1.2,1.1,2.3,0,3.64-2.9,3.87-4.24h.46l.74,1.7c-.92,2.62-4.28,4.56-8.66,4.56-2.49,0-4.6-.6-5.8-1.93-.69-.78-.97-1.8-1.06-3.27-.14-3.27.09-10.04.14-13.31l-3.04-.37.23-1.29h2.86c.05-1.38.05-3.82.05-5.85,3.87-.6,7.51-1.75,8.8-2.53l.37.14c-.09,1.47-.28,6.03-.28,8.24h5.8Z"/>
        <path class="cls-2" d="M404.39,103.24c2.07.09,4.19.18,7.23.18,3.32,0,6.4-.18,7.78-.18l.18,1.15-1.52.18c-.78.14-.83.37-.55,1.06,1.2,3.13,4.42,9.21,5.07,10.18,1.01-2.44,2.53-6.4,3.41-9.03.46-1.47.14-1.93-1.47-2.12l-2.07-.28v-1.15c1.24,0,3.04.18,4.74.18,1.38,0,3.18-.18,4.88-.18v1.15c-2.3.05-2.81.32-4.38,3.41-1.93,3.91-6.72,15.24-8.84,20.31-2.07,4.97-3.68,6.72-7,6.72-2.07,0-3.78-1.29-3.78-3.73,0-2.62,1.93-3.59,3.36-3.59,1.15,0,1.75.6,2.03,1.2.46,1.1.74,1.66,1.8,1.66,1.29,0,2.76-4.28,3.22-5.43-.51-.23-1.75-1.43-2.49-2.9-2.85-5.76-6.22-12.11-8.29-15.75-.74-1.29-1.15-1.66-2.26-1.8l-1.01-.09-.05-1.15Z"/>
        <path class="cls-2" d="M455.41,102.69c6.95,0,13.54,2.44,13.54,10.36,0,7.46-6.12,10.64-13.91,10.64-8.8,0-13.63-3.55-13.63-10.27,0-7.23,5.53-10.73,13.95-10.73h.05ZM454.99,103.93c-1.29,0-2.07.78-2.62,1.8-.64,1.15-1.11,3.91-1.11,6.91,0,3.78.55,6.03,1.29,7.64.64,1.52,1.75,2.16,3.08,2.16s2.21-.69,2.67-1.93c.6-1.47,1.01-3.59,1.01-6.86s-.69-6.54-1.43-7.83c-.69-1.34-1.52-1.89-2.86-1.89h-.05Z"/>
        <path class="cls-2" d="M470.87,103.43h2.86v-1.61c0-3.04.83-5.66,2.99-7.64,1.93-1.8,4.47-2.85,7.69-2.85,4.93,0,6.59,2.16,6.59,4.14,0,1.57-1.38,3.13-4.14,3.13-1.29,0-1.7-.74-1.75-1.7-.05-2.95-.23-4.24-1.38-4.24-.55,0-1.2.55-1.2,2.26,0,1.57.32,5.76.37,8.52h4.42l-.23,1.24-4.24.41c-.09,1.61-.14,3.64-.14,6.68,0,4.74,0,6.58.14,8.43.09,1.1.37,1.57,1.47,1.61.88.14,1.61.18,2.3.18l-.18,1.15c-1.66,0-5.48-.18-7.92-.18-2.62,0-6.31.14-8.06.18l.18-1.15c2.53-.05,2.81-.32,2.85-1.2.09-1.43.18-3.22.18-5.8v-9.95l-3.09-.37.28-1.24Z"/>
        <path class="cls-2" d="M532.3,123.14c-1.89-.05-5.34-.18-9.16-.18s-5.39.09-8.93.18l.09-1.15c2.86-.32,3.13-.51,2.86-1.66-.32-1.47-1.61-5.62-2.53-8.66-1.47-.05-3.13-.05-4.7-.05s-3.22,0-4.51.05c-1.52,4.42-2.16,6.4-2.3,7.28-.32,2.12.37,2.76,4.61,3.04l-.28,1.15c-1.43,0-3.18-.18-5.53-.18-1.61,0-4.38.18-6.49.18l.05-1.15c2.72-.28,3.87-.69,5.11-3.22,1.93-4.01,7.46-18.7,8.84-22.7.37-1.2.46-1.75.55-2.86,1.47.14,7.37-.14,8.47-.88,2.21,6.68,8.06,24.45,10.04,28.18.37.78,1.06,1.2,1.93,1.29l1.84.18.05,1.15ZM506.01,110.01c1.24,0,2.76.05,4.14.05s2.81-.05,3.96-.05c-1.2-4.01-2.62-8.7-3.78-12.53-.83,2.44-1.98,5.62-4.33,12.53Z"/>
        <path class="cls-2" d="M532.8,91.96c3.36,0,7.46-.23,11.93-.6-.09,1.11-.23,3.18-.23,9.21v12.39c0,4.61,0,6.08.09,7.23.09,1.57.37,1.7,2.81,1.8v1.15c-1.75,0-5.48-.18-7.14-.18-3.73,0-6.4.18-7.92.18v-1.15c2.3,0,2.72-.32,2.9-1.89.09-1.06.23-3.91.23-8.2v-11.24c0-3.59,0-5.11-.09-6.35-.14-1.01-.32-1.11-2.67-1.2l.09-1.15Z"/>
        <path class="cls-2" d="M548.55,92.19c1.7,0,8.66-.23,12.3-.83,0,.83-.28,5.43-.28,11.97v2.4c2.67-1.89,5.11-3.09,8.61-3.04,3.41.05,5.8,1.29,7.23,3.5,1.11,1.66,1.61,3.73,1.61,5.89,0,8.61-5.43,11.6-13.31,11.6-2.3,0-5.43-.6-6.95-1.2-1.98.37-4.15.83-6.12,1.34l-.23-.14c.05-4.01.14-8.06.14-12.8v-9.9c0-2.58-.05-4.42-.18-6.35-.05-1.2-.23-1.29-2.81-1.29v-1.15ZM564.16,122.49c2.44,0,4.47-1.84,4.47-9.76,0-2.03-.32-3.96-1.01-5.34-.64-1.24-1.52-2.07-3.18-2.07s-3.13,1.2-3.78,2.58c-.32.69-.41,1.7-.41,6.68s.14,5.57.64,6.26c.92,1.15,2.03,1.66,3.22,1.66h.05Z"/>
        <path class="cls-2" d="M594.27,123.69c-4.97,0-8.15-1.24-10.04-3.18-1.61-1.66-2.49-4.14-2.49-7.14,0-6.31,4.28-10.68,12.85-10.68,9.76,0,11.05,6.03,11.05,8.47,0,.83-.28,1.34-.83,1.7-.51.32-2.26.69-6.35.74-1.11.05-4.28.05-7.18.05-.05,1.38.28,3.27,1.01,4.74.88,1.75,2.39,2.76,5.25,2.76,3.36,0,5.57-2.12,6.86-5.39l1.15.64c-1.8,5.48-6.45,7.28-11.28,7.28ZM594.59,103.84c-1.93,0-3.27,3.27-3.32,8.57.88-.05,1.75-.05,2.53-.05,1.38-.05,2.26-.14,2.81-.37.51-.23.97-.92.97-1.98,0-1.7-.37-6.17-2.95-6.17h-.05Z"/>
        <path class="cls-2" d="M610.71,112.54c0-2.9-.05-5.25-.37-6.82-.09-.46-.28-.69-.97-.69h-1.43l-.09-1.24c2.72,0,8.47-.28,11.01-1.06l.18.14c.28.83.51,2.62.51,5.16h.14c1.61-3.59,3.41-5.34,6.4-5.34,2.62,0,3.87,2.07,3.87,4.01,0,3.55-2.81,4.33-3.96,4.33-1.34,0-2.12-.6-2.39-1.38-.37-1.11-.65-1.93-1.61-1.93s-1.47.78-1.89,1.75c-.23.6-.37.88-.37,1.93,0,5.16.05,7.88.09,8.93.05,1.2.64,1.47,4.24,1.66l-.18,1.15c-2.76-.05-5.53-.18-8.52-.18s-5.67.14-7.74.18l.23-1.15c2.21-.09,2.58-.37,2.67-1.24.09-1.01.18-2.95.18-5.85v-2.35Z"/>
        <path class="cls-2" d="M649.62,103.43l-.05,1.29-5.8.42c0,1.57-.05,4.42-.05,7.69s0,6.03.23,7.64c.14.74.51,1.1,1.2,1.1,2.3,0,3.64-2.9,3.87-4.24h.46l.74,1.7c-.92,2.62-4.28,4.56-8.66,4.56-2.49,0-4.6-.6-5.8-1.93-.69-.78-.97-1.8-1.06-3.27-.14-3.27.09-10.04.14-13.31l-3.04-.37.23-1.29h2.86c.05-1.38.05-3.82.05-5.85,3.87-.6,7.51-1.75,8.8-2.53l.37.14c-.09,1.47-.28,6.03-.28,8.24h5.8Z"/>
        <path class="cls-2" d="M666.7,107.8c-.05-2.26-.74-3.92-2.76-3.92-2.3,0-3.18,1.52-3.13,3.5,0,.46,0,1.24.09,1.66.09.55-.05,1.06-.51,1.43-.74.6-2.12.88-3.13.88-1.84,0-3.78-.65-3.78-2.76,0-2.58,3.55-5.89,11.83-5.89,5.89,0,8.11,1.98,9.12,3.22.42.55.83,1.66.83,2.53v10.82c0,1.38.23,1.61.83,1.61.74,0,1.98-1.7,2.44-3.87l1.29.55c-1.06,4.28-3.41,6.12-7.78,6.12-3.91,0-4.88-1.89-5.43-3.5-2.3,2.35-4.93,3.5-7.78,3.5-4.65,0-6.72-2.62-6.72-5.99,0-2.07.97-3.64,2.49-4.14,4.01-1.38,9.49-2.67,12.16-4.1l-.05-1.66ZM661.4,116.69c0,1.7.64,3.78,2.49,3.78s2.21-1.89,2.4-2.53c.18-.6.32-1.61.37-2.72l.09-4.42c-1.01.41-2.49,1.1-3.5,1.7-1.1.64-1.84,1.61-1.84,4.14v.05Z"/>
      </g>
      <path class="cls-1" d="M70.95,146.63l-1.64-31.4c-.09-1.91,1.39-3.52,3.29-3.61.25-.01.5,0,.74.05l31.26,5.49-4.22-11.64c-.35-.95-.06-2.02.73-2.66l34.24-27.73-7.71-3.6c-1.08-.51-1.61-1.74-1.24-2.87l6.77-20.81-19.72,4.18c-1.1.23-2.21-.35-2.66-1.38l-3.82-8.99-15.39,16.52c-.9.95-2.4.99-3.34.09-.59-.56-.85-1.37-.7-2.16l7.42-38.28-11.9,6.88c-1.13.66-2.58.28-3.24-.84-.03-.05-.05-.09-.07-.14L67.68,0l-12.08,23.72c-.58,1.17-2.01,1.64-3.17,1.06-.05-.02-.09-.05-.14-.07l-11.9-6.88,7.42,38.28c.25,1.28-.59,2.52-1.88,2.77-.79.15-1.61-.11-2.16-.7l-15.39-16.52-3.82,8.99c-.44,1.03-1.55,1.61-2.66,1.38l-19.72-4.18,6.77,20.81c.37,1.13-.16,2.37-1.24,2.87l-7.71,3.6,34.24,27.73c.79.64,1.08,1.71.73,2.66l-4.22,11.64,31.26-5.49c1.88-.32,3.67.94,3.99,2.82.04.25.06.5.05.74l-1.64,31.4h6.55Z"/>
      <polygon class="cls-1" points="124.3 70.1 679.82 75.1 124.3 80.1 124.3 70.1 124.3 70.1"/>
    </g>
  </g>
</svg>